<?xml version="1.0" standalone="no"?>
<!DOCTYPE svg PUBLIC "-//W3C//DTD SVG 20010904//EN"
 "http://www.w3.org/TR/2001/REC-SVG-20010904/DTD/svg10.dtd">
<svg version="1.0" xmlns="http://www.w3.org/2000/svg"
 width="16.000000pt" height="16.000000pt" viewBox="0 0 16.000000 16.000000"
 preserveAspectRatio="xMidYMid meet">

<g transform="translate(0.000000,16.000000) scale(0.100000,-0.100000)"
fill="#000000" stroke="none">
<path d="M0 79 c0 -71 2 -80 18 -77 14 3 18 16 20 67 l3 64 35 -33 c30 -30 34
-31 34 -14 0 29 -51 74 -83 74 l-27 0 0 -81z"/>
<path d="M127 153 c-4 -3 -7 -33 -7 -67 l0 -60 -35 34 c-30 30 -35 31 -35 14
0 -29 51 -74 83 -74 l27 0 0 80 c0 60 -3 80 -13 80 -8 0 -17 -3 -20 -7z"/>
</g>
</svg>
